<svg width="365" height="553" viewBox="0 0 365 553" fill="none" xmlns="http://www.w3.org/2000/svg">
<path d="M284.274 403.994C322.055 438.113 350.943 490.721 364.802 552.994H0.80249C14.661 490.721 43.549 438.113 81.3306 403.994H284.274Z" fill="black"/>
<path d="M94.1282 392.994C127.584 359.122 148.271 312.366 148.271 260.728C148.271 231.818 141.788 204.439 130.209 179.994H236.03C224.451 204.439 217.967 231.818 217.967 260.728C217.967 312.366 238.654 359.122 272.111 392.994H94.1282Z" fill="black"/>
<path d="M201.617 18.4969C201.617 28.7124 193.335 36.9937 183.12 36.9937C172.904 36.9937 164.623 28.7124 164.623 18.4969C164.623 8.28133 172.904 0 183.12 0C193.335 0 201.617 8.28133 201.617 18.4969Z" fill="black"/>
<path d="M108.111 122.523C108.111 140.098 114.163 156.252 124.287 168.994H240.234C250.358 156.252 256.41 140.098 256.41 122.523C256.41 122.523 256.41 81.313 182.26 47.9941C108.111 80.4362 108.111 122.142 108.111 122.523Z" fill="black"/>
</svg>
