<svg width="433" height="707" viewBox="0 0 433 707" fill="none" xmlns="http://www.w3.org/2000/svg">
<path d="M337.176 531.439C382.116 571.615 416.477 633.562 432.962 706.891H0C16.4842 633.562 50.8454 571.615 95.7852 531.439H337.176Z" fill="black"/>
<path d="M180 80L216 43L252 81L216 116L180 80Z" fill="black"/>
<path d="M200 16L216 0L233 16L216 33L200 16Z" fill="black"/>
<path d="M252 81L293 43V116L252 81Z" fill="black"/>
<path d="M180 80L139 116V43L180 80Z" fill="black"/>
<path d="M139 116H293V176.439H139V116Z" fill="black"/>
<path d="M103 520.439C145.616 477.501 171.966 418.233 171.966 352.776C171.966 316.131 163.708 281.425 148.96 250.439H283.749C269.001 281.425 260.743 316.131 260.743 352.776C260.743 418.233 287.093 477.501 329.709 520.439H103Z" fill="black"/>
<path d="M143.214 239.439H289.064C298.949 220.46 311.152 202.988 325.278 187.439H107C121.125 202.988 133.329 220.46 143.214 239.439Z" fill="black"/>
</svg>
