<svg width="279" height="497" viewBox="0 0 279 497" fill="none" xmlns="http://www.w3.org/2000/svg">
<path d="M59.5819 363.933H253.406L141.112 143.523L278.91 143.523V85.2827L137.208 17.9993C91.8215 35.3178 59.5819 79.2584 59.5819 130.729V363.933Z" fill="white"/>
<path d="M48.5819 363.933V130.729C48.5819 78.1633 79.3977 32.7949 123.949 11.7037L99.301 0C56.2156 21.6249 26.6456 66.2107 26.6456 117.703V363.933H48.5819Z" fill="white"/>
<path d="M0.802002 428.934H274.804C246.263 417.274 221.157 398.584 201.489 374.934H74.1166C54.4484 398.584 29.3429 417.274 0.802002 428.934Z" fill="white"/>
<path d="M0.802589 439.934H274.803V496.934H0.802589V439.934Z" fill="white"/>
</svg>
