<svg width="212" height="351" viewBox="0 0 212 351" fill="none" xmlns="http://www.w3.org/2000/svg">
<path d="M149.795 45C149.795 69.8528 129.648 90 104.795 90C79.9425 90 59.7953 69.8528 59.7953 45C59.7953 20.1472 79.9425 0 104.795 0C129.648 0 149.795 20.1472 149.795 45Z" fill="white"/>
<path d="M151.246 284H59.4714C46.7116 309.566 26.5328 332.396 0.911377 351H211.588C185.316 332.52 164.523 309.676 151.246 284Z" fill="white"/>
<path d="M163.107 101H47.4813C66.7936 130.612 77.7944 164.71 77.7944 201C77.7944 226.328 72.4359 250.587 62.6331 273H147.956C138.153 250.587 132.794 226.328 132.794 201C132.794 164.71 143.795 130.612 163.107 101Z" fill="white"/>
</svg>
