<svg width="346" height="611" viewBox="0 0 346 611" fill="none" xmlns="http://www.w3.org/2000/svg">
<path d="M195.962 23C195.962 35.7025 185.664 46 172.962 46C160.259 46 149.962 35.7025 149.962 23C149.962 10.2975 160.259 0 172.962 0C185.664 0 195.962 10.2975 195.962 23Z" fill="black"/>
<path d="M101.962 94.9998H244.2C226.851 71.7027 201.42 57 173.081 57C144.741 57 119.31 71.7027 101.962 94.9998Z" fill="black"/>
<path d="M280.717 106H65.9616C81.0238 121.673 94.2168 139.123 105.187 158H241.492C252.462 139.123 265.655 121.673 280.717 106Z" fill="black"/>
<path d="M235.109 169H110.74C130.204 206.69 141.195 249.466 141.195 294.808C141.195 356.821 120.636 414.032 85.9616 460H259.887C225.213 414.032 204.654 356.821 204.654 294.808C204.654 249.466 215.645 206.69 235.109 169Z" fill="black"/>
<path d="M269.514 471C305.306 503.058 332.674 552.488 345.803 611H0.96167C14.0906 552.488 41.4579 503.058 77.2506 471H269.514Z" fill="black"/>
</svg>
