<svg width="69" height="64" viewBox="0 0 69 64" fill="none" xmlns="http://www.w3.org/2000/svg">
<path d="M4.88889 16.8889C7.58895 16.8889 9.77778 14.7001 9.77778 12C9.77778 9.29994 7.58895 7.11111 4.88889 7.11111C2.18883 7.11111 0 9.29994 0 12C0 14.7001 2.18883 16.8889 4.88889 16.8889Z" fill="black"/>
<path d="M19.1111 11.5555C21.8112 11.5555 24 9.36672 24 6.66666C24 3.9666 21.8112 1.77777 19.1111 1.77777C16.4111 1.77777 14.2222 3.9666 14.2222 6.66666C14.2222 9.36672 16.4111 11.5555 19.1111 11.5555Z" fill="black"/>
<path d="M34.2222 9.77778C36.9223 9.77778 39.1111 7.58895 39.1111 4.88889C39.1111 2.18883 36.9223 0 34.2222 0C31.5221 0 29.3333 2.18883 29.3333 4.88889C29.3333 7.58895 31.5221 9.77778 34.2222 9.77778Z" fill="black"/>
<path d="M49.3333 11.5555C52.0334 11.5555 54.2222 9.36672 54.2222 6.66666C54.2222 3.9666 52.0334 1.77777 49.3333 1.77777C46.6333 1.77777 44.4445 3.9666 44.4445 6.66666C44.4445 9.36672 46.6333 11.5555 49.3333 11.5555Z" fill="black"/>
<path d="M63.5556 16.8889C66.2556 16.8889 68.4445 14.7001 68.4445 12C68.4445 9.29994 66.2556 7.11111 63.5556 7.11111C60.8555 7.11111 58.6667 9.29994 58.6667 12C58.6667 14.7001 60.8555 16.8889 63.5556 16.8889Z" fill="black"/>
<path fill-rule="evenodd" clip-rule="evenodd" d="M10.2222 36.8889C25.3333 34.2222 47.5555 34.2222 58.2222 36.8889L62.6667 14.6667L49.3333 35.1111L48.8 10.0445L39.5555 34.2222L34.2222 8.44446L28.8889 34.2222L19.6444 10.0445L19.1111 35.1111L5.77777 14.6667L10.2222 36.8889Z" fill="black" stroke="black" stroke-width="1.5" stroke-linejoin="round"/>
<path fill-rule="evenodd" clip-rule="evenodd" d="M10.2222 36.8889C10.2222 40.4444 12.8889 40.4444 14.6667 44C16.4445 46.6667 16.4445 45.7778 15.5556 50.2222C12.8889 52 13.7778 54.6667 13.7778 54.6667C11.1111 57.3333 13.7778 59.1111 13.7778 59.1111C25.3333 60.8889 43.1111 60.8889 54.6667 59.1111C54.6667 59.1111 57.3333 57.3333 54.6667 54.6667C54.6667 54.6667 55.5556 52 52.8889 50.2222C52 45.7778 52 46.6667 53.7778 44C55.5556 40.4444 58.2222 40.4444 58.2222 36.8889C43.1111 34.2222 25.3333 34.2222 10.2222 36.8889Z" fill="black" stroke="black" stroke-width="1.5" stroke-linejoin="round"/>
<path d="M13.7778 59.1111C27.0182 63.7173 41.4262 63.7173 54.6667 59.1111" stroke="black" stroke-width="1.5" stroke-linejoin="round"/>
<path d="M13.7778 42.2222C27.0182 37.616 41.4262 37.616 54.6667 42.2222" stroke="white" stroke-width="1.5" stroke-linecap="round" stroke-linejoin="round"/>
<path d="M16.4445 46.6667H52" stroke="white" stroke-width="1.5" stroke-linecap="round" stroke-linejoin="round"/>
<path d="M14.6667 52C27.3648 56.2039 41.0796 56.2039 53.7778 52" stroke="white" stroke-width="1.5" stroke-linecap="round" stroke-linejoin="round"/>
<path d="M12.8889 57.3333C26.6666 62.3619 41.7779 62.3619 55.5556 57.3333" stroke="white" stroke-width="1.5" stroke-linecap="round" stroke-linejoin="round"/>
</svg>
